<?xml version="1.0"?>
<svg xmlns="http://www.w3.org/2000/svg" xmlns:xlink="http://www.w3.org/1999/xlink" version="1.1" id="Capa_1" x="0px" y="0px" viewBox="0 0 512.036 512.036" style="enable-background:new 0 0 512.036 512.036;" xml:space="preserve" width="512px" height="512px"><g><g>
	<g>
		<g>
			<path d="M99.316,134.095l-17.12-27.024c-9.904,6.28-19.164,13.52-27.648,21.616l22.096,23.184     C83.6,145.216,91.194,139.262,99.316,134.095z" data-original="#000000" class="active-path" data-old_color="#000000" fill="#FFFFFF"/>
			<path d="M57.924,173.647l-26.24-18.304c-6.724,9.627-12.47,19.902-17.152,30.672l29.376,12.8     C47.721,189.975,52.417,181.543,57.924,173.647z" data-original="#000000" class="active-path" data-old_color="#000000" fill="#FFFFFF"/>
			<path d="M192.036,303.871h48c-26.485,35.365-76.624,42.564-111.989,16.079c-35.365-26.485-42.564-76.624-16.079-111.989     c26.485-35.365,76.624-42.564,111.989-16.079c0.123,0.092,0.245,0.184,0.367,0.277l12.4,9.376l59.904-74.752l-12.8-9.968     C235.199,79.75,170.99,70.134,113.636,91.327l11.376,29.904c41.496-15.432,87.758-11.145,125.712,11.648l-20.208,25.216     c-54.063-30.055-122.255-10.593-152.31,43.47c-30.055,54.063-10.593,122.255,43.47,152.31     c54.063,30.055,122.255,10.593,152.31-43.47c3.053-5.492,5.639-11.232,7.73-17.158l7.568-21.376h-65.248v-32h96v16     c0,79.529-64.471,144-144,144s-144-64.471-144-144c-0.016-9.996,1.019-19.965,3.088-29.744l-31.312-6.64     c-20.027,95.117,40.846,188.459,135.963,208.485c95.117,20.027,188.459-40.846,208.485-135.963     c2.502-11.884,3.767-23.994,3.776-36.138v-48h-160V303.871z" data-original="#000000" class="active-path" data-old_color="#000000" fill="#FFFFFF"/>
			<polygon points="464.036,239.871 464.036,191.871 432.036,191.871 432.036,239.871 384.036,239.871 384.036,271.871      432.036,271.871 432.036,319.871 464.036,319.871 464.036,271.871 512.036,271.871 512.036,239.871    " data-original="#000000" class="active-path" data-old_color="#000000" fill="#FFFFFF"/>
		</g>
	</g>
</g></g> </svg>
